<svg data-v-fde0c5aa="" xmlns="http://www.w3.org/2000/svg" viewBox="0 0 300 300" class="font"><!----><defs data-v-fde0c5aa=""><!----></defs><rect data-v-fde0c5aa="" fill="transparent" x="0" y="0" width="300px" height="300px" class="logo-background-square"></rect><defs data-v-fde0c5aa=""><linearGradient data-v-fde0c5aa="" gradientTransform="rotate(25)" id="d7ba770c-7845-4d1c-b41f-2d2b3476020b" x1="0%" y1="0%" x2="100%" y2="0%"><stop data-v-fde0c5aa="" offset="0%" stop-color="#288B58" stop-opacity="1"></stop><stop data-v-fde0c5aa="" offset="100%" stop-color="#1522F1" stop-opacity="1"></stop></linearGradient></defs><g data-v-fde0c5aa="" id="df4b6b87-c5a5-4d47-83e9-88c229464018" fill="url(#d7ba770c-7845-4d1c-b41f-2d2b3476020b)" transform="matrix(3.277711427257102,0,0,3.277711427257102,38.16448159292135,117.3703814287905)"><path d="M6.30 13.29L6.20 13.29L5.98 13.29C5.88 13.29 5.77 13.27 5.66 13.27L5.66 9.28C5.66 8.89 5.61 8.55 5.52 8.23C5.42 7.91 5.28 7.64 5.10 7.42C4.91 7.20 4.68 7.03 4.40 6.92C4.12 6.79 3.79 6.73 3.42 6.73C2.91 6.73 2.46 6.83 2.06 7.01C1.65 7.20 1.27 7.48 0.91 7.84L1.02 8.05C1.06 8.13 1.13 8.18 1.23 8.18C1.30 8.18 1.40 8.12 1.50 8.02C1.60 7.92 1.74 7.84 1.90 7.73C2.07 7.62 2.25 7.52 2.49 7.42C2.73 7.32 3.01 7.28 3.35 7.28C3.89 7.28 4.31 7.45 4.59 7.80C4.87 8.15 5.00 8.64 5.00 9.28L5.00 10.01C4.21 10.02 3.54 10.09 2.98 10.21C2.42 10.32 1.96 10.47 1.60 10.65C1.23 10.84 0.98 11.06 0.81 11.31C0.64 11.56 0.56 11.83 0.56 12.12C0.56 12.45 0.62 12.73 0.71 12.95C0.83 13.17 0.97 13.36 1.13 13.50C1.30 13.64 1.51 13.75 1.74 13.82C1.96 13.89 2.18 13.93 2.42 13.93C2.70 13.93 2.97 13.90 3.21 13.85C3.44 13.79 3.65 13.71 3.86 13.61C4.07 13.51 4.27 13.38 4.47 13.23C4.65 13.08 4.83 12.91 5.03 12.73L5.12 13.62C5.15 13.75 5.25 13.82 5.39 13.82L5.40 13.82L5.66 13.82L6.58 13.82L6.58 13.54C6.58 13.38 6.48 13.30 6.30 13.29ZM5.00 12.26C4.83 12.43 4.68 12.60 4.51 12.74C4.34 12.88 4.16 13.01 3.96 13.12C3.77 13.23 3.56 13.30 3.33 13.36C3.11 13.41 2.86 13.44 2.59 13.44C2.41 13.44 2.23 13.43 2.06 13.37C1.89 13.31 1.75 13.24 1.62 13.13C1.50 13.02 1.39 12.88 1.32 12.71C1.23 12.54 1.20 12.35 1.20 12.11C1.20 11.86 1.27 11.63 1.43 11.44C1.58 11.24 1.81 11.09 2.11 10.95C2.42 10.81 2.81 10.70 3.29 10.61C3.77 10.53 4.34 10.47 5.00 10.46ZM12.43 11.06C12.32 10.86 12.18 10.71 12.00 10.57C11.82 10.43 11.61 10.32 11.38 10.23C11.16 10.15 10.91 10.05 10.67 9.98C10.43 9.91 10.19 9.83 9.95 9.76C9.73 9.69 9.52 9.59 9.34 9.49C9.16 9.39 9.02 9.27 8.90 9.13C8.79 8.99 8.74 8.81 8.74 8.58C8.74 8.40 8.76 8.23 8.85 8.08C8.93 7.92 9.04 7.77 9.20 7.64C9.34 7.52 9.52 7.43 9.73 7.36C9.94 7.29 10.16 7.25 10.42 7.25C10.78 7.25 11.14 7.31 11.52 7.43C11.54 7.60 11.55 7.77 11.56 7.92C11.58 8.08 11.58 8.19 11.59 8.27C11.61 8.36 11.61 8.43 11.61 8.44C11.62 8.67 11.72 8.78 11.91 8.78L12.25 8.78L12.25 7.11C11.52 6.86 10.91 6.75 10.40 6.75C10.05 6.75 9.73 6.80 9.45 6.90C9.17 7.00 8.92 7.14 8.72 7.31C8.53 7.48 8.37 7.69 8.26 7.91C8.15 8.13 8.11 8.37 8.11 8.62C8.11 8.92 8.16 9.16 8.27 9.35C8.39 9.55 8.53 9.70 8.71 9.84C8.89 9.98 9.09 10.09 9.32 10.18C9.55 10.26 9.79 10.35 10.04 10.42C10.28 10.49 10.51 10.57 10.75 10.64C10.98 10.71 11.19 10.81 11.37 10.92C11.55 11.03 11.70 11.16 11.82 11.31C11.93 11.47 11.98 11.65 11.98 11.89C11.98 12.10 11.94 12.29 11.87 12.49C11.79 12.68 11.68 12.84 11.52 12.98C11.37 13.12 11.19 13.23 10.96 13.31C10.74 13.40 10.49 13.44 10.19 13.44C9.66 13.44 9.21 13.37 8.83 13.22C8.82 13.03 8.81 12.87 8.79 12.71C8.78 12.56 8.78 12.43 8.76 12.35C8.75 12.26 8.75 12.19 8.75 12.18C8.74 11.96 8.64 11.84 8.44 11.84L8.11 11.84L8.11 13.54C8.78 13.79 9.46 13.93 10.16 13.93C10.56 13.93 10.89 13.87 11.20 13.76C11.51 13.65 11.76 13.50 11.97 13.30C12.18 13.10 12.33 12.89 12.45 12.63C12.56 12.36 12.61 12.08 12.61 11.77C12.61 11.49 12.54 11.26 12.43 11.06ZM20.37 6.86L19.85 6.86L18.45 6.86L18.45 7.13C18.45 7.28 18.55 7.36 18.73 7.38L18.80 7.38C18.83 7.38 18.86 7.39 18.90 7.39L19.11 7.39C19.21 7.39 19.32 7.41 19.45 7.41L17.30 12.45L17.22 12.66C17.19 12.73 17.18 12.80 17.15 12.87C17.14 12.80 17.09 12.73 17.08 12.66C17.05 12.59 17.04 12.52 17.01 12.45L14.84 7.41C14.99 7.41 15.13 7.39 15.25 7.39C15.36 7.39 15.44 7.38 15.47 7.38L15.55 7.38C15.74 7.36 15.83 7.28 15.83 7.13L15.83 6.86L14.42 6.86L14.42 6.86L13.86 6.86L13.40 6.86L13.40 7.13C13.40 7.28 13.50 7.36 13.68 7.38C13.68 7.38 13.82 7.38 14.10 7.39L16.81 13.57L15.58 16.28L16.06 16.28C16.14 16.28 16.21 16.25 16.25 16.21C16.30 16.17 16.34 16.13 16.37 16.06L20.13 7.39L20.38 7.39C20.47 7.39 20.51 7.38 20.54 7.38L20.61 7.38C20.79 7.36 20.89 7.28 20.89 7.13L20.89 6.86ZM29.19 13.29L29.12 13.29L29.01 13.29C28.97 13.29 28.90 13.27 28.80 13.27C28.70 13.27 28.59 13.26 28.46 13.26L28.46 9.37C28.46 8.96 28.41 8.60 28.31 8.27C28.21 7.95 28.07 7.67 27.87 7.45C27.68 7.22 27.44 7.06 27.15 6.93C26.85 6.80 26.52 6.75 26.14 6.75C25.62 6.75 25.14 6.87 24.72 7.11C24.30 7.36 23.94 7.67 23.62 8.08L23.56 7.03C23.55 6.92 23.48 6.86 23.35 6.86L22.99 6.86L21.98 6.86L21.98 7.13C21.98 7.28 22.06 7.36 22.25 7.38L22.33 7.38C22.36 7.38 22.39 7.39 22.43 7.39L22.64 7.39C22.74 7.39 22.86 7.41 22.99 7.41L22.99 13.26C22.82 13.26 22.68 13.29 22.57 13.29L22.34 13.29L22.25 13.29C22.06 13.30 21.98 13.38 21.98 13.54L21.98 13.82L22.99 13.82L23.65 13.82L24.65 13.82L24.65 13.54C24.65 13.38 24.57 13.30 24.39 13.29L24.30 13.29L24.21 13.29C24.16 13.29 24.09 13.27 24.00 13.27C23.90 13.27 23.77 13.26 23.65 13.26L23.65 8.60C23.95 8.19 24.30 7.87 24.70 7.63C25.09 7.39 25.51 7.28 25.97 7.28C26.59 7.28 27.05 7.46 27.34 7.83C27.64 8.20 27.79 8.71 27.79 9.37L27.79 13.82L28.46 13.82L29.47 13.82L29.47 13.54C29.47 13.38 29.37 13.30 29.19 13.29ZM35.78 12.70C35.76 12.66 35.70 12.63 35.64 12.63C35.59 12.63 35.53 12.66 35.45 12.74C35.36 12.82 35.24 12.91 35.10 13.01C34.96 13.10 34.76 13.17 34.54 13.26C34.31 13.34 34.02 13.38 33.68 13.38C33.32 13.38 32.98 13.31 32.69 13.17C32.40 13.03 32.14 12.85 31.93 12.59C31.72 12.33 31.56 12.01 31.44 11.63C31.33 11.26 31.28 10.82 31.28 10.33C31.28 9.86 31.33 9.44 31.44 9.06C31.56 8.68 31.72 8.36 31.93 8.09C32.14 7.83 32.41 7.62 32.72 7.48C33.03 7.34 33.38 7.27 33.78 7.27C34.13 7.27 34.52 7.35 34.97 7.50C34.99 7.69 34.99 7.87 35 8.04C35.01 8.20 35.03 8.33 35.04 8.43C35.06 8.53 35.06 8.58 35.06 8.60C35.07 8.82 35.17 8.93 35.36 8.93L35.70 8.93L35.70 7.18L35.34 7.07C35.10 7.00 34.80 6.92 34.48 6.85C34.16 6.78 33.91 6.75 33.74 6.75C33.24 6.75 32.80 6.82 32.41 7.00C32.02 7.18 31.68 7.42 31.42 7.74C31.15 8.06 30.95 8.44 30.81 8.88C30.67 9.31 30.59 9.80 30.59 10.33C30.59 10.89 30.66 11.40 30.81 11.84C30.95 12.29 31.16 12.66 31.43 12.96C31.70 13.27 32.02 13.51 32.38 13.66C32.75 13.83 33.14 13.92 33.59 13.92C33.85 13.92 34.10 13.89 34.34 13.83C34.58 13.78 34.80 13.72 35.01 13.64C35.22 13.55 35.39 13.44 35.56 13.31C35.73 13.19 35.85 13.06 35.97 12.92ZM44.91 12.21C44.88 12.18 44.84 12.15 44.80 12.15C44.77 12.15 44.76 12.15 44.73 12.17C44.72 12.18 44.69 12.21 44.66 12.22C44.46 12.40 44.25 12.56 44.06 12.70C43.86 12.84 43.65 12.94 43.41 13.03C43.18 13.13 42.92 13.20 42.64 13.24C42.36 13.29 42.06 13.31 41.71 13.31C41.15 13.31 40.60 13.22 40.12 13.01C39.63 12.81 39.23 12.52 38.88 12.14C38.53 11.76 38.23 11.28 38.04 10.74C37.84 10.19 37.74 9.56 37.74 8.86C37.74 8.18 37.84 7.56 38.04 7.01C38.25 6.47 38.53 6.01 38.89 5.61C39.26 5.24 39.69 4.94 40.19 4.73C40.70 4.52 41.24 4.42 41.85 4.42C42.74 4.42 43.57 4.56 44.30 4.89C44.34 5.78 44.38 6.30 44.38 6.41C44.39 6.64 44.48 6.75 44.67 6.75L45.01 6.75L45.01 4.51C43.83 4.03 42.77 3.81 41.85 3.81C41.13 3.81 40.49 3.92 39.89 4.17C39.30 4.42 38.77 4.76 38.35 5.21C37.91 5.66 37.59 6.19 37.35 6.80C37.11 7.42 37.00 8.11 37.00 8.86C37.00 9.63 37.13 10.32 37.35 10.95C37.58 11.58 37.90 12.10 38.30 12.54C38.71 12.99 39.20 13.33 39.77 13.57C40.35 13.80 40.96 13.93 41.65 13.93C42.06 13.93 42.43 13.90 42.78 13.83C43.12 13.76 43.44 13.66 43.74 13.54C44.02 13.41 44.28 13.26 44.52 13.09C44.76 12.91 44.98 12.73 45.19 12.50ZM49.43 6.73C48.93 6.73 48.48 6.83 48.09 7.00C47.70 7.17 47.36 7.41 47.08 7.71C46.80 8.02 46.61 8.40 46.47 8.85C46.33 9.30 46.24 9.79 46.24 10.33C46.24 10.88 46.33 11.37 46.47 11.80C46.61 12.24 46.80 12.63 47.08 12.94C47.36 13.24 47.70 13.48 48.09 13.65C48.48 13.82 48.93 13.90 49.43 13.90C49.94 13.90 50.37 13.82 50.76 13.65C51.16 13.48 51.49 13.24 51.76 12.94C52.02 12.63 52.25 12.24 52.39 11.80C52.53 11.37 52.60 10.88 52.60 10.33C52.60 9.79 52.53 9.30 52.39 8.85C52.25 8.40 52.02 8.02 51.76 7.71C51.49 7.41 51.16 7.17 50.76 7.00C50.37 6.83 49.94 6.73 49.43 6.73ZM49.43 13.38C49.01 13.38 48.65 13.31 48.34 13.17C48.03 13.03 47.77 12.82 47.56 12.56C47.35 12.29 47.21 11.97 47.10 11.59C46.98 11.21 46.94 10.79 46.94 10.33C46.94 9.87 46.98 9.45 47.10 9.07C47.21 8.69 47.35 8.37 47.56 8.11C47.77 7.84 48.03 7.62 48.34 7.48C48.65 7.34 49.01 7.27 49.43 7.27C49.85 7.27 50.20 7.34 50.51 7.48C50.82 7.62 51.09 7.84 51.30 8.11C51.51 8.37 51.66 8.69 51.76 9.07C51.86 9.45 51.91 9.87 51.91 10.33C51.91 10.79 51.86 11.21 51.76 11.59C51.66 11.97 51.51 12.29 51.30 12.56C51.09 12.82 50.82 13.03 50.51 13.17C50.20 13.31 49.85 13.38 49.43 13.38ZM60.70 13.54C60.70 13.38 60.62 13.30 60.44 13.29L60.37 13.29L60.27 13.29C60.23 13.29 60.16 13.27 60.07 13.27L59.77 13.27L59.77 3.63L59.11 3.63L58.10 3.63L58.10 3.91C58.10 4.06 58.20 4.14 58.38 4.16L58.45 4.16C58.48 4.16 58.51 4.17 58.55 4.17L58.77 4.17C58.87 4.17 58.98 4.19 59.11 4.19L59.11 7.76C58.86 7.42 58.56 7.17 58.21 7.00C57.86 6.82 57.46 6.73 56.98 6.73C56.49 6.73 56.06 6.83 55.68 7.01C55.30 7.20 54.99 7.46 54.73 7.78C54.46 8.11 54.28 8.50 54.14 8.93C54.00 9.37 53.94 9.84 53.94 10.35C53.94 11.54 54.18 12.43 54.66 13.02C55.13 13.61 55.80 13.90 56.66 13.90C57.18 13.90 57.64 13.79 58.06 13.54C58.48 13.29 58.83 12.95 59.14 12.53L59.21 13.64C59.22 13.76 59.29 13.82 59.40 13.82L59.77 13.82L60.70 13.82L60.70 13.61ZM59.11 12.01C58.81 12.43 58.48 12.77 58.10 13.01C57.72 13.24 57.32 13.37 56.85 13.37C56.14 13.37 55.58 13.13 55.20 12.64C54.82 12.15 54.63 11.38 54.63 10.35C54.63 9.88 54.67 9.48 54.78 9.10C54.89 8.72 55.05 8.39 55.26 8.12C55.47 7.85 55.72 7.63 56.03 7.48C56.34 7.32 56.70 7.25 57.11 7.25C57.51 7.25 57.89 7.34 58.21 7.50C58.53 7.67 58.84 7.95 59.11 8.34ZM64.93 6.73C64.44 6.73 63.99 6.83 63.60 7.00C63.21 7.17 62.89 7.41 62.62 7.71C62.36 8.02 62.15 8.39 62.01 8.81C61.87 9.23 61.78 9.69 61.78 10.19C61.78 10.78 61.87 11.31 62.02 11.77C62.17 12.24 62.38 12.61 62.66 12.94C62.94 13.26 63.28 13.50 63.67 13.66C64.06 13.83 64.50 13.90 64.97 13.90C65.24 13.90 65.51 13.89 65.76 13.83C66.01 13.78 66.26 13.71 66.49 13.62C66.71 13.54 66.92 13.44 67.10 13.31C67.28 13.19 67.44 13.06 67.55 12.92L67.37 12.70C67.34 12.66 67.28 12.63 67.23 12.63C67.19 12.63 67.10 12.66 67.00 12.74C66.91 12.82 66.77 12.91 66.58 13.01C66.42 13.10 66.19 13.17 65.94 13.26C65.69 13.34 65.38 13.38 65.03 13.38C64.64 13.38 64.29 13.31 63.97 13.17C63.64 13.03 63.38 12.84 63.15 12.57C62.93 12.31 62.76 11.97 62.64 11.58C62.51 11.19 62.45 10.71 62.45 10.19L62.45 10.07L67.48 10.07C67.55 10.07 67.59 10.05 67.62 10.01C67.65 9.97 67.68 9.90 67.68 9.80C67.68 9.31 67.61 8.88 67.47 8.50C67.33 8.12 67.14 7.78 66.89 7.53C66.65 7.28 66.36 7.08 66.02 6.94C65.69 6.80 65.32 6.73 64.93 6.73ZM64.95 7.24C65.27 7.24 65.55 7.29 65.81 7.41C66.08 7.52 66.30 7.67 66.49 7.88C66.67 8.09 66.82 8.33 66.92 8.62C67.02 8.92 67.07 9.25 67.07 9.63L62.48 9.63C62.52 9.27 62.61 8.93 62.73 8.64C62.86 8.34 63.03 8.09 63.24 7.88C63.45 7.67 63.70 7.52 63.98 7.41C64.26 7.29 64.58 7.24 64.95 7.24Z"></path></g><!----><!----></svg>